<svg xmlns="http://www.w3.org/2000/svg" viewBox="0 0 800 1000"><g stroke-linecap="round"><path fill="none" d="M-20 871q75-93 69-210T14 475M42 719q61-60 113-83M48 648q-3-99 60-154M61 565q48-6 81-35" stroke="#ac9870" stroke-width="5"/><path fill="none" d="m89 659 21-45m-49 82 84-3M32 594l-28-52m80 3 9-58" stroke="#ac9870" stroke-width="2"/><path transform="translate(97 641) rotate(-35)" d="M0 0q8-22 39-11Q26 8 0 0Z" fill="#66816b" stroke="#b4b287" stroke-width=".7"/><path fill="none" transform="translate(97 641) rotate(-35)" d="m0 0 32-9" stroke="#b4b287" stroke-width=".6"/><path transform="translate(125 628) rotate(-40)" d="M0 0q8-22 39-11Q26 8 0 0Z" fill="#66816b" stroke="#b4b287" stroke-width=".7"/><path fill="none" transform="translate(125 628) rotate(-40)" d="m0 0 32-9" stroke="#b4b287" stroke-width=".6"/><path transform="translate(155 619) rotate(-10)" d="M0 0q8-22 39-11Q26 8 0 0Z" fill="#66816b" stroke="#b4b287" stroke-width=".7"/><path fill="none" transform="translate(155 619) rotate(-10)" d="m0 0 32-9" stroke="#b4b287" stroke-width=".6"/><path transform="translate(75 681) rotate(10)" d="M0 0q8-22 39-11Q26 8 0 0Z" fill="#66816b" stroke="#b4b287" stroke-width=".7"/><path fill="none" transform="translate(75 681) rotate(10)" d="m0 0 32-9" stroke="#b4b287" stroke-width=".6"/><path transform="translate(141 692) rotate(10)" d="M0 0q8-22 39-11Q26 8 0 0Z" fill="#66816b" stroke="#b4b287" stroke-width=".7"/><path fill="none" transform="translate(141 692) rotate(10)" d="m0 0 32-9" stroke="#b4b287" stroke-width=".6"/><path transform="translate(105 509) rotate(-50)" d="M0 0q8-22 39-11Q26 8 0 0Z" fill="#66816b" stroke="#b4b287" stroke-width=".7"/><path fill="none" transform="translate(105 509) rotate(-50)" d="m0 0 32-9" stroke="#b4b287" stroke-width=".6"/><path transform="translate(125 534) rotate(-10)" d="M0 0q8-22 39-11Q26 8 0 0Z" fill="#66816b" stroke="#b4b287" stroke-width=".7"/><path fill="none" transform="translate(125 534) rotate(-10)" d="m0 0 32-9" stroke="#b4b287" stroke-width=".6"/><path transform="translate(145 522) rotate(-30)" d="M0 0q8-22 39-11Q26 8 0 0Z" fill="#66816b" stroke="#b4b287" stroke-width=".7"/><path fill="none" transform="translate(145 522) rotate(-30)" d="m0 0 32-9" stroke="#b4b287" stroke-width=".6"/><path transform="translate(83 551) rotate(160)" d="M0 0q8-22 39-11Q26 8 0 0Z" fill="#66816b" stroke="#b4b287" stroke-width=".7"/><path fill="none" transform="translate(83 551) rotate(160)" d="m0 0 32-9" stroke="#b4b287" stroke-width=".6"/><path transform="translate(37 599) rotate(-120)" d="M0 0q8-22 39-11Q26 8 0 0Z" fill="#66816b" stroke="#b4b287" stroke-width=".7"/><path fill="none" transform="translate(37 599) rotate(-120)" d="m0 0 32-9" stroke="#b4b287" stroke-width=".6"/><path transform="translate(15 546) rotate(-90)" d="M0 0q8-22 39-11Q26 8 0 0Z" fill="#66816b" stroke="#b4b287" stroke-width=".7"/><path fill="none" transform="translate(15 546) rotate(-90)" d="m0 0 32-9" stroke="#b4b287" stroke-width=".6"/><path transform="translate(60 616) rotate(-80)" d="M0 0q8-22 39-11Q26 8 0 0Z" fill="#66816b" stroke="#b4b287" stroke-width=".7"/><path fill="none" transform="translate(60 616) rotate(-80)" d="m0 0 32-9" stroke="#b4b287" stroke-width=".6"/><g transform="translate(39.5 686.6)" fill="#d7b673"><ellipse cx="-2" cy="-2" rx="2" ry="3" transform="rotate(-30)"/><ellipse cx="2" cy="-2" rx="2" ry="3" transform="rotate(30)"/><ellipse cy="2" rx="3" ry="2"/><circle r="1" fill="#f8dc8e"/></g><g transform="translate(90.0 634.1)" fill="#d7b673"><ellipse cx="-2" cy="-2" rx="2" ry="3" transform="rotate(-30)"/><ellipse cx="2" cy="-2" rx="2" ry="3" transform="rotate(30)"/><ellipse cy="2" rx="3" ry="2"/><circle r="1" fill="#f8dc8e"/></g><g transform="translate(88.1 594.1)" fill="#d7b673"><ellipse cx="-2" cy="-2" rx="2" ry="3" transform="rotate(-30)"/><ellipse cx="2" cy="-2" rx="2" ry="3" transform="rotate(30)"/><ellipse cy="2" rx="3" ry="2"/><circle r="1" fill="#f8dc8e"/></g><g transform="translate(160.2 542.6)" fill="#d7b673"><ellipse cx="-2" cy="-2" rx="2" ry="3" transform="rotate(-30)"/><ellipse cx="2" cy="-2" rx="2" ry="3" transform="rotate(30)"/><ellipse cy="2" rx="3" ry="2"/><circle r="1" fill="#f8dc8e"/></g><g transform="translate(39.4 529.8)" fill="#d7b673"><ellipse cx="-2" cy="-2" rx="2" ry="3" transform="rotate(-30)"/><ellipse cx="2" cy="-2" rx="2" ry="3" transform="rotate(30)"/><ellipse cy="2" rx="3" ry="2"/><circle r="1" fill="#f8dc8e"/></g><g transform="translate(101.8 639.0)" fill="#d7b673"><ellipse cx="-2" cy="-2" rx="2" ry="3" transform="rotate(-30)"/><ellipse cx="2" cy="-2" rx="2" ry="3" transform="rotate(30)"/><ellipse cy="2" rx="3" ry="2"/><circle r="1" fill="#f8dc8e"/></g><g transform="translate(119.4 536.8)" fill="#d7b673"><ellipse cx="-2" cy="-2" rx="2" ry="3" transform="rotate(-30)"/><ellipse cx="2" cy="-2" rx="2" ry="3" transform="rotate(30)"/><ellipse cy="2" rx="3" ry="2"/><circle r="1" fill="#f8dc8e"/></g><g transform="translate(123.3 680.7)" fill="#d7b673"><ellipse cx="-2" cy="-2" rx="2" ry="3" transform="rotate(-30)"/><ellipse cx="2" cy="-2" rx="2" ry="3" transform="rotate(30)"/><ellipse cy="2" rx="3" ry="2"/><circle r="1" fill="#f8dc8e"/></g><g transform="translate(108.3 539.8)" fill="#d7b673"><ellipse cx="-2" cy="-2" rx="2" ry="3" transform="rotate(-30)"/><ellipse cx="2" cy="-2" rx="2" ry="3" transform="rotate(30)"/><ellipse cy="2" rx="3" ry="2"/><circle r="1" fill="#f8dc8e"/></g><g transform="translate(92.5 640.5)" fill="#d7b673"><ellipse cx="-2" cy="-2" rx="2" ry="3" transform="rotate(-30)"/><ellipse cx="2" cy="-2" rx="2" ry="3" transform="rotate(30)"/><ellipse cy="2" rx="3" ry="2"/><circle r="1" fill="#f8dc8e"/></g><g transform="translate(103.3 606.5)" fill="#d7b673"><ellipse cx="-2" cy="-2" rx="2" ry="3" transform="rotate(-30)"/><ellipse cx="2" cy="-2" rx="2" ry="3" transform="rotate(30)"/><ellipse cy="2" rx="3" ry="2"/><circle r="1" fill="#f8dc8e"/></g><g transform="translate(99.5 695.4)" fill="#d7b673"><ellipse cx="-2" cy="-2" rx="2" ry="3" transform="rotate(-30)"/><ellipse cx="2" cy="-2" rx="2" ry="3" transform="rotate(30)"/><ellipse cy="2" rx="3" ry="2"/><circle r="1" fill="#f8dc8e"/></g><g transform="translate(160.9 602.6)" fill="#d7b673"><ellipse cx="-2" cy="-2" rx="2" ry="3" transform="rotate(-30)"/><ellipse cx="2" cy="-2" rx="2" ry="3" transform="rotate(30)"/><ellipse cy="2" rx="3" ry="2"/><circle r="1" fill="#f8dc8e"/></g><g transform="translate(115.0 593.5)" fill="#d7b673"><ellipse cx="-2" cy="-2" rx="2" ry="3" transform="rotate(-30)"/><ellipse cx="2" cy="-2" rx="2" ry="3" transform="rotate(30)"/><ellipse cy="2" rx="3" ry="2"/><circle r="1" fill="#f8dc8e"/></g><g transform="translate(99.8 593.7)" fill="#d7b673"><ellipse cx="-2" cy="-2" rx="2" ry="3" transform="rotate(-30)"/><ellipse cx="2" cy="-2" rx="2" ry="3" transform="rotate(30)"/><ellipse cy="2" rx="3" ry="2"/><circle r="1" fill="#f8dc8e"/></g><g transform="translate(153.3 639.2)" fill="#d7b673"><ellipse cx="-2" cy="-2" rx="2" ry="3" transform="rotate(-30)"/><ellipse cx="2" cy="-2" rx="2" ry="3" transform="rotate(30)"/><ellipse cy="2" rx="3" ry="2"/><circle r="1" fill="#f8dc8e"/></g><g transform="translate(111.4 684.4)" fill="#d7b673"><ellipse cx="-2" cy="-2" rx="2" ry="3" transform="rotate(-30)"/><ellipse cx="2" cy="-2" rx="2" ry="3" transform="rotate(30)"/><ellipse cy="2" rx="3" ry="2"/><circle r="1" fill="#f8dc8e"/></g><g transform="translate(115.7 528.9)" fill="#d7b673"><ellipse cx="-2" cy="-2" rx="2" ry="3" transform="rotate(-30)"/><ellipse cx="2" cy="-2" rx="2" ry="3" transform="rotate(30)"/><ellipse cy="2" rx="3" ry="2"/><circle r="1" fill="#f8dc8e"/></g><g transform="translate(103.1 541.7)" fill="#d7b673"><ellipse cx="-2" cy="-2" rx="2" ry="3" transform="rotate(-30)"/><ellipse cx="2" cy="-2" rx="2" ry="3" transform="rotate(30)"/><ellipse cy="2" rx="3" ry="2"/><circle r="1" fill="#f8dc8e"/></g><g transform="translate(30.3 590.2)" fill="#d7b673"><ellipse cx="-2" cy="-2" rx="2" ry="3" transform="rotate(-30)"/><ellipse cx="2" cy="-2" rx="2" ry="3" transform="rotate(30)"/><ellipse cy="2" rx="3" ry="2"/><circle r="1" fill="#f8dc8e"/></g><g transform="translate(31.1 592.4)" fill="#d7b673"><ellipse cx="-2" cy="-2" rx="2" ry="3" transform="rotate(-30)"/><ellipse cx="2" cy="-2" rx="2" ry="3" transform="rotate(30)"/><ellipse cy="2" rx="3" ry="2"/><circle r="1" fill="#f8dc8e"/></g><g transform="translate(86.2 693.8)" fill="#d7b673"><ellipse cx="-2" cy="-2" rx="2" ry="3" transform="rotate(-30)"/><ellipse cx="2" cy="-2" rx="2" ry="3" transform="rotate(30)"/><ellipse cy="2" rx="3" ry="2"/><circle r="1" fill="#f8dc8e"/></g><g transform="translate(113.6 642.9)" fill="#d7b673"><ellipse cx="-2" cy="-2" rx="2" ry="3" transform="rotate(-30)"/><ellipse cx="2" cy="-2" rx="2" ry="3" transform="rotate(30)"/><ellipse cy="2" rx="3" ry="2"/><circle r="1" fill="#f8dc8e"/></g><g transform="translate(124.0 606.0)" fill="#d7b673"><ellipse cx="-2" cy="-2" rx="2" ry="3" transform="rotate(-30)"/><ellipse cx="2" cy="-2" rx="2" ry="3" transform="rotate(30)"/><ellipse cy="2" rx="3" ry="2"/><circle r="1" fill="#f8dc8e"/></g><g transform="translate(93.6 683.6)" fill="#d7b673"><ellipse cx="-2" cy="-2" rx="2" ry="3" transform="rotate(-30)"/><ellipse cx="2" cy="-2" rx="2" ry="3" transform="rotate(30)"/><ellipse cy="2" rx="3" ry="2"/><circle r="1" fill="#f8dc8e"/></g><g transform="translate(102.7 631.1)" fill="#d7b673"><ellipse cx="-2" cy="-2" rx="2" ry="3" transform="rotate(-30)"/><ellipse cx="2" cy="-2" rx="2" ry="3" transform="rotate(30)"/><ellipse cy="2" rx="3" ry="2"/><circle r="1" fill="#f8dc8e"/></g><g transform="translate(159.1 633.9)" fill="#d7b673"><ellipse cx="-2" cy="-2" rx="2" ry="3" transform="rotate(-30)"/><ellipse cx="2" cy="-2" rx="2" ry="3" transform="rotate(30)"/><ellipse cy="2" rx="3" ry="2"/><circle r="1" fill="#f8dc8e"/></g><g transform="translate(35.4 635.3)" fill="#d7b673"><ellipse cx="-2" cy="-2" rx="2" ry="3" transform="rotate(-30)"/><ellipse cx="2" cy="-2" rx="2" ry="3" transform="rotate(30)"/><ellipse cy="2" rx="3" ry="2"/><circle r="1" fill="#f8dc8e"/></g><g transform="translate(37.9 592.3)" fill="#d7b673"><ellipse cx="-2" cy="-2" rx="2" ry="3" transform="rotate(-30)"/><ellipse cx="2" cy="-2" rx="2" ry="3" transform="rotate(30)"/><ellipse cy="2" rx="3" ry="2"/><circle r="1" fill="#f8dc8e"/></g><g transform="translate(87.2 695.2)" fill="#d7b673"><ellipse cx="-2" cy="-2" rx="2" ry="3" transform="rotate(-30)"/><ellipse cx="2" cy="-2" rx="2" ry="3" transform="rotate(30)"/><ellipse cy="2" rx="3" ry="2"/><circle r="1" fill="#f8dc8e"/></g><g transform="translate(150.7 691.6)" fill="#d7b673"><ellipse cx="-2" cy="-2" rx="2" ry="3" transform="rotate(-30)"/><ellipse cx="2" cy="-2" rx="2" ry="3" transform="rotate(30)"/><ellipse cy="2" rx="3" ry="2"/><circle r="1" fill="#f8dc8e"/></g><g transform="translate(123.3 687.6)" fill="#d7b673"><ellipse cx="-2" cy="-2" rx="2" ry="3" transform="rotate(-30)"/><ellipse cx="2" cy="-2" rx="2" ry="3" transform="rotate(30)"/><ellipse cy="2" rx="3" ry="2"/><circle r="1" fill="#f8dc8e"/></g><g transform="translate(103.9 680.0)" fill="#d7b673"><ellipse cx="-2" cy="-2" rx="2" ry="3" transform="rotate(-30)"/><ellipse cx="2" cy="-2" rx="2" ry="3" transform="rotate(30)"/><ellipse cy="2" rx="3" ry="2"/><circle r="1" fill="#f8dc8e"/></g><g transform="translate(163.6 596.2)" fill="#d7b673"><ellipse cx="-2" cy="-2" rx="2" ry="3" transform="rotate(-30)"/><ellipse cx="2" cy="-2" rx="2" ry="3" transform="rotate(30)"/><ellipse cy="2" rx="3" ry="2"/><circle r="1" fill="#f8dc8e"/></g><g transform="translate(51.0 592.7)" fill="#d7b673"><ellipse cx="-2" cy="-2" rx="2" ry="3" transform="rotate(-30)"/><ellipse cx="2" cy="-2" rx="2" ry="3" transform="rotate(30)"/><ellipse cy="2" rx="3" ry="2"/><circle r="1" fill="#f8dc8e"/></g><g transform="translate(130.8 685.4)" fill="#d7b673"><ellipse cx="-2" cy="-2" rx="2" ry="3" transform="rotate(-30)"/><ellipse cx="2" cy="-2" rx="2" ry="3" transform="rotate(30)"/><ellipse cy="2" rx="3" ry="2"/><circle r="1" fill="#f8dc8e"/></g><g transform="translate(142.1 589.2)" fill="#d7b673"><ellipse cx="-2" cy="-2" rx="2" ry="3" transform="rotate(-30)"/><ellipse cx="2" cy="-2" rx="2" ry="3" transform="rotate(30)"/><ellipse cy="2" rx="3" ry="2"/><circle r="1" fill="#f8dc8e"/></g><g transform="translate(124.6 693.5)" fill="#d7b673"><ellipse cx="-2" cy="-2" rx="2" ry="3" transform="rotate(-30)"/><ellipse cx="2" cy="-2" rx="2" ry="3" transform="rotate(30)"/><ellipse cy="2" rx="3" ry="2"/><circle r="1" fill="#f8dc8e"/></g><g transform="translate(51.1 685.5)" fill="#d7b673"><ellipse cx="-2" cy="-2" rx="2" ry="3" transform="rotate(-30)"/><ellipse cx="2" cy="-2" rx="2" ry="3" transform="rotate(30)"/><ellipse cy="2" rx="3" ry="2"/><circle r="1" fill="#f8dc8e"/></g><g transform="translate(31.8 537.5)" fill="#d7b673"><ellipse cx="-2" cy="-2" rx="2" ry="3" transform="rotate(-30)"/><ellipse cx="2" cy="-2" rx="2" ry="3" transform="rotate(30)"/><ellipse cy="2" rx="3" ry="2"/><circle r="1" fill="#f8dc8e"/></g><g transform="translate(75.1 634.9)" fill="#d7b673"><ellipse cx="-2" cy="-2" rx="2" ry="3" transform="rotate(-30)"/><ellipse cx="2" cy="-2" rx="2" ry="3" transform="rotate(30)"/><ellipse cy="2" rx="3" ry="2"/><circle r="1" fill="#f8dc8e"/></g><g transform="translate(118.0 687.0)" fill="#d7b673"><ellipse cx="-2" cy="-2" rx="2" ry="3" transform="rotate(-30)"/><ellipse cx="2" cy="-2" rx="2" ry="3" transform="rotate(30)"/><ellipse cy="2" rx="3" ry="2"/><circle r="1" fill="#f8dc8e"/></g><g transform="translate(117.1 688.1)" fill="#d7b673"><ellipse cx="-2" cy="-2" rx="2" ry="3" transform="rotate(-30)"/><ellipse cx="2" cy="-2" rx="2" ry="3" transform="rotate(30)"/><ellipse cy="2" rx="3" ry="2"/><circle r="1" fill="#f8dc8e"/></g><g transform="translate(154.6 641.2)" fill="#d7b673"><ellipse cx="-2" cy="-2" rx="2" ry="3" transform="rotate(-30)"/><ellipse cx="2" cy="-2" rx="2" ry="3" transform="rotate(30)"/><ellipse cy="2" rx="3" ry="2"/><circle r="1" fill="#f8dc8e"/></g><g transform="translate(46.9 603.2)" fill="#d7b673"><ellipse cx="-2" cy="-2" rx="2" ry="3" transform="rotate(-30)"/><ellipse cx="2" cy="-2" rx="2" ry="3" transform="rotate(30)"/><ellipse cy="2" rx="3" ry="2"/><circle r="1" fill="#f8dc8e"/></g><g transform="translate(92.8 637.4)" fill="#d7b673"><ellipse cx="-2" cy="-2" rx="2" ry="3" transform="rotate(-30)"/><ellipse cx="2" cy="-2" rx="2" ry="3" transform="rotate(30)"/><ellipse cy="2" rx="3" ry="2"/><circle r="1" fill="#f8dc8e"/></g><g transform="translate(108.4 636.8)" fill="#d7b673"><ellipse cx="-2" cy="-2" rx="2" ry="3" transform="rotate(-30)"/><ellipse cx="2" cy="-2" rx="2" ry="3" transform="rotate(30)"/><ellipse cy="2" rx="3" ry="2"/><circle r="1" fill="#f8dc8e"/></g><g transform="translate(26.8 684.9)" fill="#d7b673"><ellipse cx="-2" cy="-2" rx="2" ry="3" transform="rotate(-30)"/><ellipse cx="2" cy="-2" rx="2" ry="3" transform="rotate(30)"/><ellipse cy="2" rx="3" ry="2"/><circle r="1" fill="#f8dc8e"/></g><g transform="translate(121.8 634.8)" fill="#d7b673"><ellipse cx="-2" cy="-2" rx="2" ry="3" transform="rotate(-30)"/><ellipse cx="2" cy="-2" rx="2" ry="3" transform="rotate(30)"/><ellipse cy="2" rx="3" ry="2"/><circle r="1" fill="#f8dc8e"/></g><g transform="translate(101.6 533.9)" fill="#d7b673"><ellipse cx="-2" cy="-2" rx="2" ry="3" transform="rotate(-30)"/><ellipse cx="2" cy="-2" rx="2" ry="3" transform="rotate(30)"/><ellipse cy="2" rx="3" ry="2"/><circle r="1" fill="#f8dc8e"/></g><g transform="translate(87.7 526.9)" fill="#d7b673"><ellipse cx="-2" cy="-2" rx="2" ry="3" transform="rotate(-30)"/><ellipse cx="2" cy="-2" rx="2" ry="3" transform="rotate(30)"/><ellipse cy="2" rx="3" ry="2"/><circle r="1" fill="#f8dc8e"/></g><g transform="translate(38.3 529.1)" fill="#d7b673"><ellipse cx="-2" cy="-2" rx="2" ry="3" transform="rotate(-30)"/><ellipse cx="2" cy="-2" rx="2" ry="3" transform="rotate(30)"/><ellipse cy="2" rx="3" ry="2"/><circle r="1" fill="#f8dc8e"/></g></g></svg>