<svg xmlns="http://www.w3.org/2000/svg" viewBox="0 0 800 1000"><circle cx="590.4" cy="175.5" r="0.9" fill="#e1ce97" opacity="0.42"/><circle cx="433.9" cy="117.4" r="1.6" fill="#e1ce97" opacity="0.22"/><circle cx="541.2" cy="408.6" r="1.6" fill="#e1ce97" opacity="0.68"/><circle cx="774.8" cy="335.9" r="0.9" fill="#e1ce97" opacity="0.59"/><circle cx="763.3" cy="40.4" r="0.9" fill="#e1ce97" opacity="0.27"/><circle cx="181.7" cy="393.4" r="1.6" fill="#e1ce97" opacity="0.38"/><circle cx="652.3" cy="41.9" r="1.1" fill="#e1ce97" opacity="0.62"/><circle cx="428.3" cy="413.9" r="0.7" fill="#e1ce97" opacity="0.43"/><circle cx="521.2" cy="261.7" r="1.1" fill="#e1ce97" opacity="0.63"/><circle cx="341.1" cy="676.4" r="0.9" fill="#e1ce97" opacity="0.23"/><circle cx="747.3" cy="171.4" r="1.6" fill="#e1ce97" opacity="0.63"/><circle cx="482.5" cy="139.2" r="0.7" fill="#e1ce97" opacity="0.24"/><circle cx="434.6" cy="572.8" r="0.7" fill="#e1ce97" opacity="0.22"/><circle cx="182.9" cy="481.2" r="0.7" fill="#e1ce97" opacity="0.63"/><circle cx="266.6" cy="334.4" r="0.7" fill="#e1ce97" opacity="0.67"/><circle cx="559.0" cy="469.9" r="0.7" fill="#e1ce97" opacity="0.38"/><circle cx="535.1" cy="634.4" r="0.9" fill="#e1ce97" opacity="0.54"/><circle cx="227.9" cy="702.1" r="1.6" fill="#e1ce97" opacity="0.37"/><circle cx="376.6" cy="321.1" r="0.7" fill="#e1ce97" opacity="0.68"/><circle cx="132.0" cy="24.3" r="0.7" fill="#e1ce97" opacity="0.69"/><circle cx="492.9" cy="654.1" r="1.6" fill="#e1ce97" opacity="0.22"/><circle cx="155.9" cy="492.7" r="0.7" fill="#e1ce97" opacity="0.60"/><circle cx="52.5" cy="773.6" r="0.9" fill="#e1ce97" opacity="0.23"/><circle cx="145.0" cy="94.5" r="0.7" fill="#e1ce97" opacity="0.64"/><circle cx="665.3" cy="731.9" r="0.7" fill="#e1ce97" opacity="0.60"/><circle cx="228.0" cy="654.6" r="1.1" fill="#e1ce97" opacity="0.52"/><circle cx="436.1" cy="325.1" r="0.7" fill="#e1ce97" opacity="0.26"/><circle cx="174.3" cy="202.8" r="0.9" fill="#e1ce97" opacity="0.27"/><circle cx="473.8" cy="782.0" r="1.6" fill="#e1ce97" opacity="0.51"/><circle cx="258.6" cy="81.3" r="0.7" fill="#e1ce97" opacity="0.57"/><circle cx="729.8" cy="52.3" r="0.9" fill="#e1ce97" opacity="0.40"/><circle cx="264.0" cy="173.7" r="1.1" fill="#e1ce97" opacity="0.42"/><circle cx="183.1" cy="406.1" r="0.7" fill="#e1ce97" opacity="0.46"/><circle cx="765.8" cy="95.9" r="0.7" fill="#e1ce97" opacity="0.31"/><circle cx="598.4" cy="128.9" r="0.9" fill="#e1ce97" opacity="0.22"/><circle cx="493.9" cy="546.8" r="0.9" fill="#e1ce97" opacity="0.60"/><circle cx="738.5" cy="783.5" r="0.7" fill="#e1ce97" opacity="0.39"/><circle cx="428.5" cy="342.1" r="0.9" fill="#e1ce97" opacity="0.37"/><circle cx="192.6" cy="443.5" r="1.1" fill="#e1ce97" opacity="0.33"/><circle cx="165.3" cy="425.0" r="1.6" fill="#e1ce97" opacity="0.36"/><circle cx="212.1" cy="623.2" r="1.1" fill="#e1ce97" opacity="0.65"/><circle cx="239.9" cy="653.9" r="1.6" fill="#e1ce97" opacity="0.59"/><circle cx="657.0" cy="332.3" r="0.7" fill="#e1ce97" opacity="0.59"/><circle cx="783.4" cy="637.9" r="0.9" fill="#e1ce97" opacity="0.50"/><circle cx="193.9" cy="188.8" r="1.1" fill="#e1ce97" opacity="0.45"/><circle cx="337.7" cy="489.2" r="1.1" fill="#e1ce97" opacity="0.58"/><circle cx="375.3" cy="91.6" r="0.7" fill="#e1ce97" opacity="0.58"/><circle cx="411.9" cy="669.1" r="0.7" fill="#e1ce97" opacity="0.57"/><circle cx="542.6" cy="481.1" r="0.7" fill="#e1ce97" opacity="0.27"/><circle cx="540.8" cy="759.5" r="0.7" fill="#e1ce97" opacity="0.58"/><circle cx="548.2" cy="109.9" r="1.6" fill="#e1ce97" opacity="0.45"/><circle cx="600.9" cy="692.4" r="1.6" fill="#e1ce97" opacity="0.33"/><circle cx="475.1" cy="604.2" r="1.6" fill="#e1ce97" opacity="0.53"/><circle cx="299.1" cy="380.9" r="1.1" fill="#e1ce97" opacity="0.27"/><circle cx="99.1" cy="611.3" r="0.9" fill="#e1ce97" opacity="0.66"/><circle cx="521.1" cy="291.0" r="0.9" fill="#e1ce97" opacity="0.61"/><circle cx="764.4" cy="475.5" r="1.6" fill="#e1ce97" opacity="0.25"/><circle cx="386.5" cy="191.3" r="1.6" fill="#e1ce97" opacity="0.57"/><circle cx="385.9" cy="144.3" r="1.1" fill="#e1ce97" opacity="0.24"/><circle cx="194.3" cy="592.6" r="0.9" fill="#e1ce97" opacity="0.59"/><circle cx="96.7" cy="622.2" r="0.9" fill="#e1ce97" opacity="0.49"/><circle cx="685.2" cy="155.9" r="1.1" fill="#e1ce97" opacity="0.49"/><circle cx="354.1" cy="786.5" r="0.9" fill="#e1ce97" opacity="0.34"/><circle cx="541.4" cy="756.9" r="0.9" fill="#e1ce97" opacity="0.48"/><circle cx="244.5" cy="517.0" r="0.7" fill="#e1ce97" opacity="0.43"/><circle cx="423.9" cy="731.8" r="1.1" fill="#e1ce97" opacity="0.27"/><circle cx="512.5" cy="754.9" r="1.1" fill="#e1ce97" opacity="0.52"/><circle cx="397.4" cy="297.5" r="1.1" fill="#e1ce97" opacity="0.64"/><circle cx="566.9" cy="457.6" r="0.7" fill="#e1ce97" opacity="0.54"/><circle cx="772.7" cy="609.9" r="0.7" fill="#e1ce97" opacity="0.57"/><circle cx="23.7" cy="142.4" r="1.1" fill="#e1ce97" opacity="0.69"/><circle cx="200.6" cy="126.4" r="0.7" fill="#e1ce97" opacity="0.66"/><circle cx="466.5" cy="293.0" r="0.7" fill="#e1ce97" opacity="0.58"/><circle cx="582.4" cy="29.5" r="1.6" fill="#e1ce97" opacity="0.45"/><circle cx="618.1" cy="470.9" r="0.7" fill="#e1ce97" opacity="0.61"/><circle cx="604.5" cy="323.3" r="0.7" fill="#e1ce97" opacity="0.55"/><circle cx="334.8" cy="246.4" r="1.6" fill="#e1ce97" opacity="0.49"/><circle cx="58.5" cy="230.8" r="0.9" fill="#e1ce97" opacity="0.27"/><circle cx="131.2" cy="744.7" r="0.7" fill="#e1ce97" opacity="0.65"/><circle cx="428.3" cy="500.8" r="0.9" fill="#e1ce97" opacity="0.38"/><circle cx="697.3" cy="615.2" r="1.1" fill="#e1ce97" opacity="0.52"/><circle cx="388.0" cy="242.5" r="1.6" fill="#e1ce97" opacity="0.36"/><circle cx="597.5" cy="766.6" r="1.1" fill="#e1ce97" opacity="0.35"/><circle cx="640.8" cy="506.6" r="1.1" fill="#e1ce97" opacity="0.66"/><circle cx="230.8" cy="384.4" r="1.1" fill="#e1ce97" opacity="0.55"/><circle cx="534.8" cy="476.5" r="1.1" fill="#e1ce97" opacity="0.40"/><circle cx="459.8" cy="640.8" r="0.9" fill="#e1ce97" opacity="0.64"/><circle cx="196.5" cy="183.4" r="0.9" fill="#e1ce97" opacity="0.23"/><circle cx="483.7" cy="708.9" r="0.9" fill="#e1ce97" opacity="0.44"/><circle cx="642.5" cy="764.6" r="1.6" fill="#e1ce97" opacity="0.33"/><circle cx="600.9" cy="417.6" r="1.6" fill="#e1ce97" opacity="0.57"/><circle cx="770.8" cy="441.3" r="0.7" fill="#e1ce97" opacity="0.39"/><circle cx="751.4" cy="654.7" r="0.7" fill="#e1ce97" opacity="0.56"/><circle cx="278.4" cy="164.5" r="1.6" fill="#e1ce97" opacity="0.40"/><circle cx="240.1" cy="782.6" r="0.7" fill="#e1ce97" opacity="0.53"/><circle cx="713.9" cy="463.1" r="0.7" fill="#e1ce97" opacity="0.43"/><circle cx="17.7" cy="41.6" r="1.1" fill="#e1ce97" opacity="0.26"/><circle cx="606.7" cy="381.7" r="1.1" fill="#e1ce97" opacity="0.42"/><circle cx="781.2" cy="363.2" r="1.1" fill="#e1ce97" opacity="0.35"/><circle cx="518.1" cy="255.5" r="1.1" fill="#e1ce97" opacity="0.67"/><circle cx="472.9" cy="501.1" r="0.7" fill="#e1ce97" opacity="0.67"/><circle cx="631.6" cy="700.1" r="0.7" fill="#e1ce97" opacity="0.56"/><circle cx="562.1" cy="677.3" r="1.6" fill="#e1ce97" opacity="0.32"/><circle cx="561.0" cy="463.8" r="0.7" fill="#e1ce97" opacity="0.65"/><circle cx="185.5" cy="470.9" r="0.9" fill="#e1ce97" opacity="0.45"/><circle cx="379.5" cy="630.3" r="1.1" fill="#e1ce97" opacity="0.64"/><circle cx="663.0" cy="717.2" r="0.7" fill="#e1ce97" opacity="0.53"/><circle cx="33.4" cy="724.5" r="0.9" fill="#e1ce97" opacity="0.50"/><circle cx="274.9" cy="790.1" r="0.7" fill="#e1ce97" opacity="0.62"/><circle cx="453.1" cy="762.7" r="1.1" fill="#e1ce97" opacity="0.54"/><circle cx="351.9" cy="778.6" r="0.9" fill="#e1ce97" opacity="0.30"/><circle cx="168.3" cy="240.0" r="0.7" fill="#e1ce97" opacity="0.54"/><circle cx="690.9" cy="543.4" r="0.7" fill="#e1ce97" opacity="0.41"/><circle cx="15.0" cy="65.3" r="1.6" fill="#e1ce97" opacity="0.37"/><circle cx="215.3" cy="630.2" r="1.1" fill="#e1ce97" opacity="0.21"/><path fill="none" d="M124 174h10M129 169v10" stroke="#e8d5a0" stroke-width=".8" opacity=".7"/><path fill="none" d="M679 204h10M684 199v10" stroke="#e8d5a0" stroke-width=".8" opacity=".7"/><path fill="none" d="M694 572h10M699 567v10" stroke="#e8d5a0" stroke-width=".8" opacity=".7"/><path fill="none" d="M163 622h10M168 617v10" stroke="#e8d5a0" stroke-width=".8" opacity=".7"/><path fill="none" d="M86 392h10M91 387v10" stroke="#e8d5a0" stroke-width=".8" opacity=".7"/><path fill="none" d="M610 81h10M615 76v10" stroke="#e8d5a0" stroke-width=".8" opacity=".7"/></svg>